<?xml version="1.0" standalone="no"?>
<!DOCTYPE svg PUBLIC "-//W3C//DTD SVG 1.1//EN" "http://www.w3.org/Graphics/SVG/1.1/DTD/svg11.dtd">
<svg xmlns="http://www.w3.org/2000/svg" xmlns:xlink="http://www.w3.org/1999/xlink" version="1.1" id="body_1" width="793" height="1121">

<defs>
    <clipPath  id="1">

    <path id=""  clip-rule="evenodd" transform="matrix(1 0 0 1 0 0)"  d="M0 841L0 -0.8897705L0 -0.8897705L595.2756 -0.8897705L595.2756 -0.8897705L595.2756 841L595.2756 841L0 841z" />    </clipPath>
</defs>

<g transform="matrix(1.3333 0 0 1.3333 0 0)">
	<g clip-path="url(#1)" >
    <path id=""  transform="matrix(1 0 0 -1 0 841)"  d="M-230.3578 533.787L-230.5477 535.739C -230.1806 535.6151 -229.8643 535.551 -229.5924 535.551C -229.2191 535.551 -228.9214 535.631 -228.7001 535.7871C -228.4756 535.9431 -228.2922 536.163 -228.1496 536.4431C -228.0453 536.6551 -227.8743 537.179 -227.6405 538.0191C -227.6087 538.1351 -227.5611 538.3071 -227.4917 538.5351L-227.4917 538.5351L-231.2308 551.031L-231.2308 551.031L-229.4467 551.031L-229.4467 551.031L-227.3905 543.839C -227.1217 542.931 -226.8845 541.9709 -226.6724 540.9629C -226.4794 541.9111 -226.2515 542.8471 -225.9859 543.767L-225.9859 543.767L-223.8854 551.031L-223.8854 551.031L-222.2184 551.031L-222.2184 551.031L-225.9417 538.359C -226.3436 536.995 -226.6566 536.059 -226.8811 535.5431C -227.1787 534.8511 -227.5203 534.3429 -227.903 534.0189C -228.289 533.6949 -228.7477 533.535 -229.2792 533.535C -229.6018 533.535 -229.9623 533.6189 -230.3578 533.787M-231.9301 540.4589L-231.7022 538.5951C -232.1705 538.471 -232.5912 538.4069 -232.9583 538.4069C -233.5623 538.4069 -234.0303 538.5271 -234.3657 538.7709C -234.6979 539.015 -234.932 539.331 -235.0681 539.727C -235.2042 540.123 -235.2705 540.955 -235.2705 542.2229L-235.2705 542.2229L-235.2705 549.3991L-235.2705 549.3991L-236.5041 549.3991L-236.5041 549.3991L-236.5041 551.031L-236.5041 551.031L-235.2705 551.031L-235.2705 551.031L-235.2705 554.1111L-235.2705 554.1111L-233.6003 555.3791L-233.6003 555.3791L-233.6003 551.031L-233.6003 551.031L-231.9301 551.031L-231.9301 551.031L-231.9301 549.3991L-231.9301 549.3991L-233.6003 549.3991L-233.6003 549.3991L-233.6003 542.103C -233.6003 541.499 -233.5717 541.1109 -233.5116 540.9391C -233.4546 540.7671 -233.3599 540.631 -233.227 540.527C -233.094 540.4269 -232.9044 540.375 -232.6575 540.375C -232.4741 540.375 -232.2303 540.4031 -231.9301 540.4589zM-239.7722 538.575L-239.7722 551.031L-239.7722 551.031L-238.1017 551.031L-238.1017 551.031L-238.1017 538.575zM-239.7722 553.3591L-239.7722 555.7592L-239.7722 555.7592L-238.1017 555.7592L-238.1017 555.7592L-238.1017 553.3591zM-244.0267 538.575L-244.0267 555.7592L-244.0267 555.7592L-242.3568 555.7592L-242.3568 555.7592L-242.3568 538.575zM-248.2438 544.8149C -248.8513 544.5031 -249.7623 544.2389 -250.977 544.0229C -251.6666 543.8991 -252.1539 543.759 -252.4385 543.6031C -252.7231 543.4469 -252.9417 543.219 -253.0964 542.9231C -253.2515 542.6232 -253.3306 542.291 -253.3306 541.923C -253.3306 541.3671 -253.1628 540.8991 -252.8246 540.527C -252.4861 540.1551 -251.9923 539.9671 -251.3438 539.9671C -250.7017 539.9671 -250.1291 540.1431 -249.6263 540.4989C -249.1265 540.851 -248.7563 541.3351 -248.5222 541.9471C -248.3419 542.4231 -248.2532 543.1229 -248.2532 544.047zM-248.1109 540.1349C -248.7311 539.4671 -249.3289 538.9991 -249.9015 538.723C -250.4741 538.4469 -251.0875 538.3111 -251.7457 538.3111C -252.8277 538.3111 -253.6597 538.6431 -254.2416 539.3109C -254.8239 539.9751 -255.1147 540.8271 -255.1147 541.8629C -255.1147 542.471 -255.0042 543.0271 -254.7856 543.5311C -254.5645 544.0351 -254.2765 544.4351 -253.9222 544.739C -253.5647 545.0431 -253.1662 545.275 -252.72 545.4312C -252.3909 545.5392 -251.8946 545.6429 -251.2332 545.747C -249.8856 545.9471 -248.889 546.1911 -248.2532 546.4709C -248.2469 546.7589 -248.2438 546.9432 -248.2438 547.0191C -248.2438 547.8749 -248.402 548.479 -248.7183 548.8311C -249.1452 549.307 -249.7813 549.5431 -250.6226 549.5431C -251.4104 549.5431 -251.9923 549.3671 -252.3657 549.019C -252.7424 548.6712 -253.0174 548.0549 -253.1979 547.1671L-253.1979 547.1671L-254.8301 547.4551C -254.6813 548.339 -254.4378 549.055 -254.0962 549.599C -253.7544 550.1429 -253.2611 550.5591 -252.6157 550.855C -251.9736 551.147 -251.2236 551.2952 -250.3757 551.2952C -249.5344 551.2952 -248.8482 551.1711 -248.3198 550.9191C -247.7945 550.6671 -247.4053 550.355 -247.1587 549.9751C -246.9121 549.595 -246.738 549.1151 -246.6369 548.5351C -246.583 548.1751 -246.5544 547.5271 -246.5544 546.5951L-246.5544 546.5951L-246.5544 543.795C -246.5544 541.8391 -246.5198 540.6029 -246.4503 540.0791C -246.3837 539.555 -246.2445 539.0549 -246.0419 538.575L-246.0419 538.575L-247.7883 538.575C -247.9558 539.0189 -248.0635 539.5391 -248.1109 540.1349zM-258.6674 538.575L-258.6674 540.4269C -259.433 539.015 -260.4705 538.3111 -261.7832 538.3111C -262.3623 538.3111 -262.9032 538.4511 -263.406 538.7309C -263.9092 539.015 -264.2825 539.367 -264.526 539.7911C -264.7695 540.2191 -264.9404 540.739 -265.0385 541.355C -265.1049 541.7711 -265.1397 542.427 -265.1397 543.3231L-265.1397 543.3231L-265.1397 551.031L-265.1397 551.031L-263.4695 551.031L-263.4695 551.031L-263.4695 544.1391C -263.4695 543.039 -263.4344 542.2949 -263.3681 541.9151C -263.2637 541.3589 -263.0424 540.9269 -262.7008 540.6111C -262.3623 540.2951 -261.9445 540.1349 -261.4448 540.1349C -260.945 540.1349 -260.4767 540.2951 -260.0402 540.6191C -259.6037 540.9431 -259.2938 541.387 -259.1101 541.9431C -258.9299 542.499 -258.8383 543.3111 -258.8383 544.371L-258.8383 544.371L-258.8383 551.031L-258.8383 551.031L-257.1678 551.031L-257.1678 551.031L-257.1678 538.575zM-273.3205 543.3231C -272.2861 542.9551 -271.4321 542.4069 -270.7611 541.6829C -269.7077 542.899 -269.1794 544.7271 -269.1794 547.1671C -269.1794 548.555 -269.3662 549.7671 -269.7395 550.8031C -270.1125 551.8431 -270.6568 552.6471 -271.3751 553.2191C -272.0931 553.7911 -272.8996 554.0791 -273.7919 554.0791C -275.1301 554.0791 -276.2405 553.4991 -277.1195 552.3432C -278.0025 551.183 -278.4421 549.455 -278.4421 547.1549C -278.4421 544.9272 -278.0056 543.2151 -277.1357 542.0191C -276.2623 540.8271 -275.1489 540.231 -273.7919 540.231C -273.1527 540.231 -272.5486 540.383 -271.9791 540.6871C -272.5424 541.1469 -273.1337 541.4751 -273.7536 541.671zM-269.3724 540.419C -268.5342 539.691 -267.7623 539.1629 -267.0537 538.827L-267.0537 538.827L-267.5883 537.243C -268.5657 537.6869 -269.5399 538.3871 -270.5111 539.3469C -271.5174 538.6391 -272.6277 538.287 -273.8424 538.287C -275.0698 538.287 -276.1835 538.6629 -277.183 539.411C -278.1828 540.159 -278.9512 541.2149 -279.4924 542.571C -280.0332 543.9311 -280.302 545.459 -280.302 547.1631C -280.302 548.8551 -280.0301 550.3949 -279.4861 551.787C -278.945 553.1751 -278.17 554.2311 -277.1671 554.959C -276.1645 555.683 -275.0411 556.0472 -273.8013 556.0472C -272.5486 556.0472 -271.419 555.6711 -270.4133 554.919C -269.4073 554.163 -268.6385 553.1111 -268.1101 551.755C -267.5818 550.4031 -267.3193 548.875 -267.3193 547.1751C -267.3193 545.7591 -267.4902 544.4909 -267.8318 543.363C -268.1702 542.2351 -268.6859 541.2549 -269.3724 540.419zM-291.4787 538.575L-291.4787 551.031L-291.4787 551.031L-289.9791 551.031L-289.9791 551.031L-289.9791 549.123C -289.5965 550.0071 -289.2419 550.5911 -288.9162 550.8711C -288.5902 551.1552 -288.233 551.2952 -287.8438 551.2952C -287.2806 551.2952 -286.708 551.071 -286.126 550.6271L-286.126 550.6271L-286.7204 548.6791C -287.1258 548.9671 -287.5306 549.1111 -287.9354 549.1111C -288.2993 549.1111 -288.625 548.9711 -288.9128 548.695C -289.2008 548.4192 -289.4066 548.0351 -289.5299 547.543C -289.7164 546.7949 -289.8082 545.9751 -289.8082 545.0831L-289.8082 545.0831L-289.8082 538.575zM-300.7633 545.991L-295.2777 545.991C -295.3505 547.039 -295.5626 547.8231 -295.9072 548.3472C -296.4356 549.159 -297.1253 549.5669 -297.97 549.5669C -298.7354 549.5669 -299.3774 549.2429 -299.8996 548.5949C -300.4183 547.9469 -300.7063 547.079 -300.7633 545.991zM-295.2967 542.607L-293.5695 542.319C -293.8385 541.0511 -294.3414 540.0629 -295.0753 539.3631C -295.8092 538.6629 -296.7457 538.3111 -297.8875 538.3111C -299.3238 538.3111 -300.4625 538.871 -301.3041 539.9909C -302.1457 541.1069 -302.5664 542.679 -302.5664 544.699C -302.5664 546.787 -302.1423 548.411 -301.2917 549.563C -300.4407 550.7192 -299.3366 551.2952 -297.9794 551.2952C -296.6666 551.2952 -295.594 550.7311 -294.762 549.599C -293.9301 548.4671 -293.5125 546.8751 -293.5125 544.8231C -293.5125 544.699 -293.5157 544.5111 -293.5219 544.263L-293.5219 544.263L-300.858 544.263C -300.7947 542.899 -300.4911 541.851 -299.9407 541.1271C -299.3936 540.4031 -298.707 540.0391 -297.8875 540.0391C -297.2769 540.0391 -296.7551 540.2429 -296.3248 540.6511C -295.8917 541.059 -295.5498 541.711 -295.2967 542.607zM-308.8142 538.575L-312.5313 551.031L-312.5313 551.031L-310.7438 551.031L-310.7438 551.031L-308.6371 543.5711C -308.4094 542.7672 -308.1974 541.931 -308.0044 541.063C -307.8558 541.7189 -307.65 542.507 -307.3813 543.4311L-307.3813 543.4311L-305.1921 551.031L-305.1921 551.031L-303.4774 551.031L-303.4774 551.031L-307.2073 538.575zM-315.7231 538.575L-315.7231 551.031L-315.7231 551.031L-314.0529 551.031L-314.0529 551.031L-314.0529 538.575zM-315.7231 553.3591L-315.7231 555.7592L-315.7231 555.7592L-314.0529 555.7592L-314.0529 555.7592L-314.0529 553.3591zM-319.9779 538.575L-319.9779 555.7592L-319.9779 555.7592L-318.3077 555.7592L-318.3077 555.7592L-318.3077 538.575zM-329.2438 545.991L-323.7582 545.991C -323.8311 547.039 -324.0431 547.8231 -324.3878 548.3472C -324.9162 549.159 -325.6058 549.5669 -326.4506 549.5669C -327.2159 549.5669 -327.858 549.2429 -328.3801 548.5949C -328.8988 547.9469 -329.1868 547.079 -329.2438 545.991zM-323.7772 542.607L-322.05 542.319C -322.3191 541.0511 -322.8219 540.0629 -323.5558 539.3631C -324.2897 538.6629 -325.2263 538.3111 -326.3681 538.3111C -327.8044 538.3111 -328.9431 538.871 -329.7847 539.9909C -330.6263 541.1069 -331.0466 542.679 -331.0466 544.699C -331.0466 546.787 -330.6229 548.411 -329.7722 549.563C -328.9212 550.7192 -327.8171 551.2952 -326.4599 551.2952C -325.1472 551.2952 -324.0746 550.7311 -323.2426 549.599C -322.4106 548.4671 -321.9931 546.8751 -321.9931 544.8231C -321.9931 544.699 -321.9962 544.5111 -322.0024 544.263L-322.0024 544.263L-329.3385 544.263C -329.2753 542.899 -328.9717 541.851 -328.4212 541.1271C -327.8738 540.4031 -327.1876 540.0391 -326.3681 540.0391C -325.7575 540.0391 -325.2356 540.2429 -324.8053 540.6511C -324.3722 541.059 -324.0303 541.711 -323.7772 542.607zM-342.1916 540.591L-339.294 540.591C -338.3989 540.591 -337.6964 540.6951 -337.1871 540.9071C -336.678 541.1191 -336.2729 541.4151 -335.9693 541.7991C -335.5455 542.3391 -335.2133 543.0671 -334.976 543.979C -334.7385 544.8912 -334.6183 545.995 -334.6183 547.295C -334.6183 549.095 -334.8524 550.4791 -335.3176 551.4471C -335.7825 552.4152 -336.3489 553.0632 -337.0161 553.3911C -337.4972 553.627 -338.2724 553.7432 -339.3414 553.7432L-339.3414 553.7432L-342.1916 553.7432zM-343.995 538.575L-343.995 555.7592L-343.995 555.7592L-339.313 555.7592C -338.2563 555.7592 -337.4498 555.679 -336.8928 555.5151C -336.1147 555.287 -335.4503 554.8751 -334.9001 554.2832C -334.182 553.515 -333.6471 552.5391 -333.2931 551.3471C -332.9354 550.1551 -332.7585 548.7911 -332.7585 547.259C -332.7585 545.955 -332.8787 544.7991 -333.1188 543.7911C -333.3594 542.7831 -333.6695 541.9471 -334.046 541.2869C -334.4255 540.627 -334.8369 540.1071 -335.2861 539.731C -335.732 539.3511 -336.2729 539.0631 -336.9059 538.867C -337.5414 538.6711 -338.269 538.575 -339.0914 538.575zM-351.1253 540.4589L-350.8974 538.5951C -351.3657 538.471 -351.7863 538.4069 -352.1534 538.4069C -352.7575 538.4069 -353.2255 538.5271 -353.5611 538.7709C -353.8933 539.015 -354.1272 539.331 -354.2632 539.727C -354.3993 540.123 -354.4656 540.955 -354.4656 542.2229L-354.4656 542.2229L-354.4656 549.3991L-354.4656 549.3991L-355.6993 549.3991L-355.6993 549.3991L-355.6993 551.031L-355.6993 551.031L-354.4656 551.031L-354.4656 551.031L-354.4656 554.1111L-354.4656 554.1111L-352.7955 555.3791L-352.7955 555.3791L-352.7955 551.031L-352.7955 551.031L-351.1253 551.031L-351.1253 551.031L-351.1253 549.3991L-351.1253 549.3991L-352.7955 549.3991L-352.7955 549.3991L-352.7955 542.103C -352.7955 541.499 -352.7668 541.1109 -352.7067 540.9391C -352.6498 540.7671 -352.5551 540.631 -352.4221 540.527C -352.2892 540.4269 -352.0996 540.375 -351.8527 540.375C -351.6693 540.375 -351.4258 540.4031 -351.1253 540.4589zM-364.9051 542.2949L-363.2539 542.6311C -363.162 541.7949 -362.9027 541.1551 -362.4789 540.707C -362.0548 540.2631 -361.4601 540.0391 -360.701 540.0391C -359.9323 540.0391 -359.3631 540.235 -358.9894 540.631C -358.6192 541.023 -358.4327 541.4871 -358.4327 542.0191C -358.4327 542.4951 -358.6005 542.8709 -358.9325 543.1431C -359.1669 543.331 -359.7361 543.5671 -360.6409 543.8591C -361.8618 544.2471 -362.7065 544.5831 -363.1813 544.8671C -363.6524 545.1551 -364.0099 545.5471 -364.2534 546.0511C -364.4972 546.5511 -364.6205 547.107 -364.6205 547.7151C -364.6205 548.2709 -364.5193 548.7831 -364.32 549.2551C -364.1176 549.7271 -363.8455 550.1191 -363.5008 550.4309C -363.2414 550.671 -362.8868 550.8751 -362.4409 551.0432C -361.9916 551.211 -361.514 551.2952 -361.0015 551.2952C -360.2296 551.2952 -359.5527 551.1552 -358.9707 550.8711C -358.3854 550.5911 -357.9551 550.207 -357.6767 549.7271C -357.4015 549.2429 -357.2087 548.5992 -357.1041 547.791L-357.1041 547.791L-358.7366 547.503C -358.8092 548.151 -359.0243 548.659 -359.3786 549.023C -359.733 549.3869 -360.2327 549.5669 -360.8813 549.5669C -361.6438 549.5669 -362.1909 549.4071 -362.5166 549.087C -362.8426 548.767 -363.0073 548.3911 -363.0073 547.9631C -363.0073 547.691 -362.9407 547.4429 -362.8049 547.223C -362.6688 546.999 -362.4568 546.8111 -362.1657 546.6631C -361.9979 546.5832 -361.5109 546.4032 -360.6945 546.1231C -359.5178 545.7271 -358.6955 545.3991 -358.2272 545.1471C -357.7589 544.8951 -357.3918 544.523 -357.1262 544.0431C -356.8575 543.5592 -356.7246 542.9591 -356.7246 542.2391C -356.7246 541.5389 -356.8861 540.879 -357.2118 540.2591C -357.5375 539.6391 -358.0058 539.159 -358.6161 538.8191C -359.2301 538.4789 -359.9226 538.3111 -360.6945 538.3111C -361.9726 538.3111 -362.9503 538.647 -363.6207 539.3151C -364.2917 539.987 -364.7186 540.9791 -364.9051 542.2949zM-368.3628 538.575L-368.3628 540.4269C -369.1284 539.015 -370.1659 538.3111 -371.4789 538.3111C -372.0577 538.3111 -372.5989 538.4511 -373.1017 538.7309C -373.6046 539.015 -373.9779 539.367 -374.2217 539.7911C -374.4652 540.2191 -374.6358 540.739 -374.7342 541.355C -374.8005 541.7711 -374.8351 542.427 -374.8351 543.3231L-374.8351 543.3231L-374.8351 551.031L-374.8351 551.031L-373.1649 551.031L-373.1649 551.031L-373.1649 544.1391C -373.1649 543.039 -373.1301 542.2949 -373.0637 541.9151C -372.9591 541.3589 -372.738 540.9269 -372.3965 540.6111C -372.0577 540.2951 -371.6402 540.1349 -371.1402 540.1349C -370.6407 540.1349 -370.1721 540.2951 -369.7359 540.6191C -369.2993 540.9431 -368.9892 541.387 -368.8055 541.9431C -368.6255 542.499 -368.5337 543.3111 -368.5337 544.371L-368.5337 544.371L-368.5337 551.031L-368.5337 551.031L-366.8632 551.031L-366.8632 551.031L-366.8632 538.575zM-381.1368 538.575L-381.1368 551.031L-381.1368 551.031L-379.6373 551.031L-379.6373 551.031L-379.6373 549.123C -379.2546 550.0071 -378.9003 550.5911 -378.5746 550.8711C -378.2486 551.1552 -377.8911 551.2952 -377.502 551.2952C -376.939 551.2952 -376.3664 551.071 -375.7844 550.6271L-375.7844 550.6271L-376.3789 548.6791C -376.7839 548.9671 -377.189 549.1111 -377.5938 549.1111C -377.9575 549.1111 -378.2832 548.9711 -378.5712 548.695C -378.8592 548.4192 -379.0647 548.0351 -379.188 547.543C -379.3748 546.7949 -379.4666 545.9751 -379.4666 545.0831L-379.4666 545.0831L-379.4666 538.575zM-388.3431 538.575L-388.3431 553.7432L-388.3431 553.7432L-392.8226 553.7432L-392.8226 553.7432L-392.8226 555.7592L-392.8226 555.7592L-382.0606 555.7592L-382.0606 555.7592L-382.0606 553.7432L-382.0606 553.7432L-386.5402 553.7432L-386.5402 553.7432L-386.5402 538.575zM-406.4349 545.0151C -406.4349 543.3871 -406.1786 542.1991 -405.6661 541.4511C -405.1505 540.703 -404.5085 540.3271 -403.7366 540.3271C -402.9678 540.3271 -402.3255 540.699 -401.8037 541.4431C -401.2849 542.1869 -401.0255 543.3551 -401.0255 544.947C -401.0255 546.467 -401.2943 547.615 -401.8289 548.3871C -402.3635 549.159 -403.0089 549.5431 -403.7618 549.5431C -404.5051 549.5431 -405.1346 549.163 -405.6565 548.403C -406.1755 547.6431 -406.4349 546.5151 -406.4349 545.0151zM-407.8015 537.5429L-406.188 537.2549C -406.1217 536.6231 -405.9317 536.163 -405.6219 535.8711C -405.2075 535.483 -404.6414 535.2871 -403.9231 535.2871C -403.1512 535.2871 -402.5531 535.483 -402.1328 535.8711C -401.7118 536.2591 -401.4272 536.8071 -401.2787 537.5069C -401.1931 537.935 -401.152 538.835 -401.1582 540.2069C -401.889 539.119 -402.7969 538.575 -403.8851 538.575C -405.2392 538.575 -406.2895 539.191 -407.0296 540.4269C -407.7731 541.6591 -408.1433 543.1391 -408.1433 544.8631C -408.1433 546.0511 -407.9724 547.147 -407.634 548.151C -407.2952 549.1551 -406.802 549.9269 -406.1565 550.4751C -405.5111 551.0231 -404.752 551.2952 -403.8789 551.2952C -402.7178 551.2952 -401.7591 550.6951 -401.0066 549.4949L-401.0066 549.4949L-401.0066 551.031L-401.0066 551.031L-399.469 551.031L-399.469 551.031L-399.469 540.275C -399.469 538.3349 -399.6238 536.963 -399.937 536.1551C -400.2471 535.3469 -400.7438 534.7071 -401.4176 534.2389C -402.0945 533.7709 -402.9265 533.535 -403.9135 533.535C -405.0873 533.535 -406.0332 533.867 -406.7544 534.5351C -407.4786 535.199 -407.827 536.203 -407.8015 537.5429zM-418.051 538.575L-418.051 551.031L-418.051 551.031L-416.5515 551.031L-416.5515 551.031L-416.5515 549.2631C -415.8303 550.6191 -414.7863 551.2952 -413.4229 551.2952C -412.8282 551.2952 -412.2839 551.1591 -411.7876 550.891C -411.2906 550.6231 -410.9173 550.2671 -410.6707 549.8311C -410.4241 549.3951 -410.25 548.875 -410.152 548.2752C -410.0919 547.8831 -410.0601 547.1991 -410.0601 546.2232L-410.0601 546.2232L-410.0601 538.575L-410.0601 538.575L-411.7306 538.575L-411.7306 538.575L-411.7306 546.143C -411.7306 547.003 -411.7938 547.647 -411.9236 548.0711C -412.0532 548.4951 -412.2839 548.835 -412.613 549.091C -412.9421 549.343 -413.3313 549.4711 -413.7741 549.4711C -414.4827 549.4711 -415.0933 549.1871 -415.6089 548.6151C -416.1246 548.047 -416.3808 546.963 -416.3808 545.3711L-416.3808 545.3711L-416.3808 538.575zM-422.2678 538.575L-422.2678 551.031L-422.2678 551.031L-420.5976 551.031L-420.5976 551.031L-420.5976 538.575zM-422.2678 553.3591L-422.2678 555.7592L-422.2678 555.7592L-420.5976 555.7592L-420.5976 555.7592L-420.5976 553.3591zM-431.7423 544.7871C -431.7423 543.1949 -431.4767 542.0069 -430.9421 541.2189C -430.4106 540.4311 -429.781 540.0391 -429.0568 540.0391C -428.326 540.0391 -427.7058 540.415 -427.1933 541.167C -426.6839 541.9191 -426.4277 543.0671 -426.4277 544.6111C -426.4277 546.3071 -426.687 547.5552 -427.2092 548.3511C -427.7279 549.1471 -428.37 549.5431 -429.1325 549.5431C -429.876 549.5431 -430.4959 549.163 -430.996 548.3991C -431.4923 547.6351 -431.7423 546.431 -431.7423 544.7871zM-426.4659 538.575L-426.4659 540.1551C -427.089 538.9271 -428.0066 538.3111 -429.2178 538.3111C -430.0024 538.3111 -430.7238 538.583 -431.3786 539.1309C -432.0366 539.6751 -432.546 540.4391 -432.9096 541.4151C -433.2705 542.395 -433.4508 543.5189 -433.4508 544.7911C -433.4508 546.031 -433.2861 547.1549 -432.9604 548.1672C -432.6313 549.1752 -432.1409 549.951 -431.4861 550.4871C -430.8344 551.0271 -430.1005 551.2952 -429.294 551.2952C -428.6991 551.2952 -428.1707 551.1351 -427.7089 550.819C -427.2471 550.5029 -426.8707 550.0871 -426.5799 549.5791L-426.5799 549.5791L-426.5799 555.7592L-426.5799 555.7592L-424.9094 555.7592L-424.9094 555.7592L-424.9094 538.575zM-437.0791 538.575L-437.0791 555.7592L-437.0791 555.7592L-435.4089 555.7592L-435.4089 555.7592L-435.4089 538.575zM-441.258 538.575L-441.258 551.031L-441.258 551.031L-439.5875 551.031L-439.5875 551.031L-439.5875 538.575zM-441.258 553.3591L-441.258 555.7592L-441.258 555.7592L-439.5875 555.7592L-439.5875 555.7592L-439.5875 553.3591zM-445.3801 538.575L-445.3801 540.4269C -446.1454 539.015 -447.1829 538.3111 -448.4959 538.3111C -449.0748 538.3111 -449.6159 538.4511 -450.1188 538.7309C -450.6216 539.015 -450.995 539.367 -451.2387 539.7911C -451.4822 540.2191 -451.6529 540.739 -451.7512 541.355C -451.8176 541.7711 -451.8522 542.427 -451.8522 543.3231L-451.8522 543.3231L-451.8522 551.031L-451.8522 551.031L-450.182 551.031L-450.182 551.031L-450.182 544.1391C -450.182 543.039 -450.1471 542.2949 -450.0808 541.9151C -449.9762 541.3589 -449.7551 540.9269 -449.4135 540.6111C -449.0748 540.2951 -448.6572 540.1349 -448.1572 540.1349C -447.6577 540.1349 -447.1894 540.2951 -446.7529 540.6191C -446.3164 540.9431 -446.0063 541.387 -445.8226 541.9431C -445.6426 542.499 -445.5507 543.3111 -445.5507 544.371L-445.5507 544.371L-445.5507 551.031L-445.5507 551.031L-443.8803 551.031L-443.8803 551.031L-443.8803 538.575zM-462.5385 540.591L-459.1536 540.591C -458.5717 540.591 -458.1635 540.6191 -457.9262 540.6749C -457.5149 540.7671 -457.1668 540.923 -456.8885 541.1429C -456.6104 541.3629 -456.3825 541.6829 -456.2019 542.103C -456.0219 542.5231 -455.9332 543.007 -455.9332 543.5549C -455.9332 544.199 -456.0627 544.7551 -456.3255 545.2311C -456.5849 545.707 -456.9454 546.0389 -457.4075 546.2311C -457.8661 546.423 -458.5303 546.5191 -459.394 546.5191L-459.394 546.5191L-462.5385 546.5191zM-462.5385 548.5351L-459.5998 548.5351C -458.8024 548.5351 -458.2298 548.6031 -457.8849 548.735C -457.4262 548.907 -457.0815 549.195 -456.8505 549.595C -456.6197 549.995 -456.5027 550.495 -456.5027 551.0991C -456.5027 551.6711 -456.6104 552.1751 -456.8284 552.6071C -457.0435 553.0431 -457.3536 553.343 -457.7553 553.5031C -458.157 553.663 -458.8466 553.7432 -459.8209 553.7432L-459.8209 553.7432L-462.5385 553.7432zM-464.3416 538.575L-464.3416 555.7592L-464.3416 555.7592L-459.2421 555.7592C -458.2046 555.7592 -457.3723 555.5871 -456.7431 555.2391C -456.1166 554.891 -455.6262 554.3552 -455.2722 553.631C -454.9144 552.911 -454.7375 552.155 -454.7375 551.363C -454.7375 550.6311 -454.8954 549.9391 -455.2087 549.2911C -455.5219 548.6431 -455.9964 548.119 -456.6322 547.719C -455.8096 547.4151 -455.1772 546.895 -454.7375 546.1591C -454.2945 545.4269 -454.0731 544.559 -454.0731 543.5592C -454.0731 542.751 -454.2092 542.003 -454.4782 541.311C -454.7469 540.6191 -455.0791 540.087 -455.4746 539.7111C -455.87 539.339 -456.3666 539.0549 -456.9613 538.863C -457.5591 538.6711 -458.2899 538.575 -459.1568 538.575z" stroke="none" fill="#C0C2C1" fill-rule="nonzero" />
    <path id=""  transform="matrix(1 0 0 -1 0 841)"  d="M453.191 217.69L475.4537 248.334L475.4537 248.334L455.2631 276.4602L455.2631 276.4602L470.4698 276.4602L470.4698 276.4602L483.1699 258.9633L483.1699 258.9633L495.87 276.4602L495.87 276.4602L511.107 276.4602L511.107 276.4602L490.8713 248.3203L490.8713 248.3203L513.0884 217.69L513.0884 217.69L497.4463 217.69L497.4463 217.69L483.1551 237.5946L483.1551 237.5946L468.8487 217.69zM399.6439 217.69L399.6439 276.4602L399.6439 276.4602L447.3816 276.4602L447.3816 276.4602L447.3816 266.5284L447.3816 266.5284L412.7043 266.5284L412.7043 266.5284L412.7043 253.4774L412.7043 253.4774L444.9495 253.4774L444.9495 253.4774L444.9495 243.5457L444.9495 243.5457L412.7043 243.5457L412.7043 243.5457L412.7043 227.6218L412.7043 227.6218L448.6425 227.6218L448.6425 227.6218L448.6425 217.69zM347.6577 251.5895L357.2955 251.5895C 363.541 251.5895 367.4285 251.8356 368.9898 252.3149C 370.5358 252.7934 371.7666 253.6279 372.638 254.8046C 373.523 255.9813 373.9584 257.4584 373.9584 259.223C 373.9584 261.2066 373.373 262.7938 372.2173 264.0251C 371.0614 265.2423 369.4252 266.0088 367.323 266.3235C 366.2575 266.4601 363.0898 266.5284 357.821 266.5284L357.821 266.5284L347.6577 266.5284zM334.5976 217.69L334.5976 276.4602L334.5976 276.4602L362.0242 276.4602C 368.9147 276.4602 373.9286 275.927 377.0515 274.8733C 380.1883 273.8203 382.6803 271.946 384.5568 269.2505C 386.4334 266.5423 387.3793 263.4639 387.3793 259.9894C 387.3793 255.5705 385.9685 251.932 383.131 249.0588C 380.2932 246.1861 376.06 244.3805 370.4162 243.6276C 373.2233 242.1369 375.535 240.4953 377.3511 238.703C 379.1832 236.9109 381.6451 233.7231 384.7368 229.1542L384.7368 229.1542L392.6035 217.69L392.6035 217.69L377.0359 217.69L377.0359 217.69L367.6992 230.5225C 364.3512 235.0777 362.0543 237.9504 360.8082 239.1406C 359.5776 240.3173 358.2711 241.1379 356.8898 241.5756C 355.4943 242.0133 353.3026 242.2327 350.2996 242.2327L350.2996 242.2327L347.6577 242.2327L347.6577 242.2327L347.6577 217.69zM294.0806 217.69L294.0806 266.5284L294.0806 266.5284L274.985 266.5284L274.985 266.5284L274.985 276.4602L274.985 276.4602L326.1455 276.4602L326.1455 276.4602L326.1455 266.5284L326.1455 266.5284L307.1407 266.5284L307.1407 266.5284L307.1407 217.69zM220.2367 247.1162C 220.2367 240.4542 221.9332 235.406 225.3107 231.9585C 228.6882 228.5252 232.9818 226.8011 238.1754 226.8011C 243.3849 226.8011 247.6485 228.5113 250.9957 231.9174C 254.3287 235.3377 255.9949 240.4542 255.9949 247.2803C 255.9949 254.0251 254.3737 259.0591 251.1159 262.3697C 247.8736 265.6942 243.5649 267.349 238.1754 267.349C 232.8018 267.349 228.4631 265.667 225.1755 262.315C 221.8881 258.9497 220.2367 253.8882 220.2367 247.1162zM206.8163 246.7196C 206.8163 252.7115 207.8067 257.7455 209.7731 261.8226C 211.2299 264.8183 213.2413 267.5132 215.7783 269.894C 218.3153 272.2742 221.0922 274.0391 224.1099 275.2016C 228.1331 276.7476 232.7715 277.5277 238.0255 277.5277C 247.5437 277.5277 255.1391 274.8322 260.8586 269.4557C 266.5633 264.0662 269.4155 256.5831 269.4155 246.9932C 269.4155 237.4852 266.5786 230.0431 260.9189 224.6808C 255.2593 219.3043 247.6786 216.6228 238.2055 216.6228C 228.6133 216.6228 220.972 219.2907 215.3126 224.6397C 209.6529 229.9748 206.8163 237.335 206.8163 246.7196zM154.8598 217.69L154.8598 275.9681L154.8598 275.9681L167.9199 275.9681L167.9199 275.9681L167.9199 227.6218L167.9199 227.6218L200.2552 227.6218L200.2552 227.6218L200.2552 217.69zM114.4321 239.2775L114.4321 249.2093L114.4321 249.2093L142.4446 249.2093L142.4446 249.2093L142.4446 225.7614C 139.7276 223.34 135.7795 221.2197 130.6003 219.3727C 125.4359 217.5395 120.1972 216.6228 114.8828 216.6228C 108.1423 216.6228 102.2729 217.9089 97.2587 220.4943C 92.2601 223.0801 88.4917 226.7875 85.9703 231.5891C 83.448 236.3913 82.1869 241.6303 82.1869 247.2803C 82.1869 253.4091 83.5985 258.8539 86.4057 263.6286C 89.2273 268.3891 93.3406 272.0554 98.7602 274.5998C 102.9036 276.556 108.0374 277.5277 114.1923 277.5277C 122.1939 277.5277 128.4537 275.9953 132.9571 272.9307C 137.4457 269.8529 140.343 265.6259 141.6342 260.2083L141.6342 260.2083L128.664 257.9922C 127.7631 260.8784 126.0513 263.1631 123.5446 264.8458C 121.0527 266.5148 117.9303 267.349 114.1775 267.349C 108.5023 267.349 103.9842 265.7078 100.6367 262.4108C 97.289 259.1138 95.6075 254.23 95.6075 247.7591C 95.6075 240.7689 97.3037 235.529 100.6965 232.0404C 104.1043 228.5524 108.5474 226.8011 114.0571 226.8011C 116.7744 226.8011 119.5061 227.2935 122.239 228.2647C 124.9858 229.2361 127.3277 230.4266 129.2941 231.8216L129.2941 231.8216L129.2941 239.2775z" stroke="none" fill="#172B4F" fill-rule="nonzero" />
    <path id=""  transform="matrix(1 0 0 -1 0 841)"  d="M301.1961 625.2622C 382.4175 625.2622 448.2601 558.4416 448.2601 476.0138C 448.2601 393.586 382.4175 326.7655 301.1961 326.7655C 219.9747 326.7655 154.1322 393.586 154.1322 476.0138C 154.1322 517.2279 170.5932 554.54 197.206 581.5483C 223.8194 608.5565 260.585 625.2622 301.1961 625.2622z" stroke="#BFC2C1" stroke-width="5.6693" stroke-linejoin="miter" fill="none" />
    <path id=""  transform="matrix(1 0 0 -1 0 841)"  d="M301.1658 624.8974C 263.6189 625.428 233.0348 593.6102 207.9516 536.2441" stroke="#BFC2C1" stroke-width="5.6693" stroke-linejoin="miter" fill="none" />
    <path id=""  transform="matrix(1 0 0 -1 0 841)"  d="M262.3527 558.2662C 268.6462 591.952 281.6036 614.128 301.1658 624.8974" stroke="#BFC2C1" stroke-width="5.6693" stroke-linejoin="miter" fill="none" />
    <path id=""  transform="matrix(1 0 0 -1 0 841)"  d="M301.1094 571.6227L301.1658 624.8974" stroke="#BFC2C1" stroke-width="5.6693" stroke-linejoin="miter" fill="none" />
    <path id=""  transform="matrix(1 0 0 -1 0 841)"  d="M301.2046 625.261C 338.7518 625.7914 369.3356 593.9736 394.4191 536.6075" stroke="#BFC2C1" stroke-width="5.6693" stroke-linejoin="miter" fill="none" />
    <path id=""  transform="matrix(1 0 0 -1 0 841)"  d="M340.0177 558.6299C 333.7245 592.3154 320.7668 614.4917 301.2046 625.261" stroke="#BFC2C1" stroke-width="5.6693" stroke-linejoin="miter" fill="none" />
    <path id=""  transform="matrix(1 0 0 -1 0 841)"  d="M214.8055 596.8091C 272.346 563.1287 330.0968 563.2557 388.0534 596.8091" stroke="#BFC2C1" stroke-width="5.6693" stroke-linejoin="miter" fill="none" />
    <path id=""  transform="matrix(1 0 0 -1 0 841)"  d="M204.014 537.7303C 197.2681 537.7303 191.7998 532.2557 191.7998 525.5019C 191.7998 518.7481 197.2681 513.273 204.014 513.273C 210.759 513.273 216.2273 518.7481 216.2273 525.5019C 216.2273 532.2557 210.759 537.7303 204.014 537.7303z" stroke="#BFC2C1" stroke-width="5.6693" stroke-linejoin="miter" fill="none" />
    <path id=""  transform="matrix(1 0 0 -1 0 841)"  d="M397.3788 537.7303C 390.6332 537.7303 385.1649 532.2557 385.1649 525.5019C 385.1649 518.7481 390.6332 513.273 397.3788 513.273C 404.1241 513.273 409.5924 518.7481 409.5924 525.5019C 409.5924 532.2557 404.1241 537.7303 397.3788 537.7303z" stroke="#BFC2C1" stroke-width="5.6693" stroke-linejoin="miter" fill="none" />
    <path id=""  transform="matrix(1 0 0 -1 0 841)"  d="M301.3294 327.0994C 263.7825 326.569 233.1984 358.3868 208.1151 415.7529" stroke="#BFC2C1" stroke-width="5.6693" stroke-linejoin="miter" fill="none" />
    <path id=""  transform="matrix(1 0 0 -1 0 841)"  d="M262.5163 393.7306C 268.8097 360.0451 281.7672 337.8688 301.3294 327.0994" stroke="#BFC2C1" stroke-width="5.6693" stroke-linejoin="miter" fill="none" />
    <path id=""  transform="matrix(1 0 0 -1 0 841)"  d="M301.2729 380.374L301.3294 327.0994" stroke="#BFC2C1" stroke-width="5.6693" stroke-linejoin="miter" fill="none" />
    <path id=""  transform="matrix(1 0 0 -1 0 841)"  d="M301.3682 326.736C 338.9153 326.2054 369.4992 358.0231 394.5827 415.3893" stroke="#BFC2C1" stroke-width="5.6693" stroke-linejoin="miter" fill="none" />
    <path id=""  transform="matrix(1 0 0 -1 0 841)"  d="M340.1813 393.3672C 333.8881 359.6814 320.9304 337.5054 301.3682 326.736" stroke="#BFC2C1" stroke-width="5.6693" stroke-linejoin="miter" fill="none" />
    <path id=""  transform="matrix(1 0 0 -1 0 841)"  d="M214.969 355.1876C 272.5095 388.8683 330.2603 388.741 388.2169 355.1876" stroke="#BFC2C1" stroke-width="5.6693" stroke-linejoin="miter" fill="none" />
    <path id=""  transform="matrix(1 0 0 -1 0 841)"  d="M204.1775 414.2667C 197.4317 414.2667 191.9633 419.7413 191.9633 426.4951C 191.9633 433.2487 197.4317 438.7238 204.1775 438.7238C 210.9226 438.7238 216.3909 433.2487 216.3909 426.4951C 216.3909 419.7413 210.9226 414.2667 204.1775 414.2667z" stroke="#BFC2C1" stroke-width="5.6693" stroke-linejoin="miter" fill="none" />
    <path id=""  transform="matrix(1 0 0 -1 0 841)"  d="M397.5423 414.2667C 390.7967 414.2667 385.3284 419.7413 385.3284 426.4951C 385.3284 433.2487 390.7967 438.7238 397.5423 438.7238C 404.2877 438.7238 409.756 433.2487 409.756 426.4951C 409.756 419.7413 404.2877 414.2667 397.5423 414.2667z" stroke="#BFC2C1" stroke-width="5.6693" stroke-linejoin="miter" fill="none" />
    <path id=""  transform="matrix(1 0 0 -1 0 841)"  d="M153.5936 476.0138L217.3674 476.0138" stroke="#BFC2C1" stroke-width="5.6693" stroke-linejoin="miter" fill="none" />
    <path id=""  transform="matrix(1 0 0 -1 0 841)"  d="M383.8445 475.9478L447.6186 475.9478" stroke="#BFC2C1" stroke-width="5.6693" stroke-linejoin="miter" fill="none" />
    <path id=""  transform="matrix(1 0 0 -1 0 841)"  d="M305.7055 459.3997L305.7055 480.5606L305.7055 480.5606L365.3895 480.5606L365.3895 480.5606L365.3895 430.602C 359.6006 425.4429 351.1891 420.9253 340.1538 416.9903C 329.1503 413.0844 317.9889 411.1308 306.6659 411.1308C 292.3038 411.1308 279.7982 413.871 269.1153 419.3796C 258.465 424.8893 250.4358 432.7886 245.0633 443.0188C 239.6897 453.2502 237.0027 464.4128 237.0027 476.4509C 237.0027 489.5087 240.0103 501.1098 245.9911 511.2831C 252.0034 521.4257 260.767 529.2374 272.3145 534.6587C 281.1424 538.8267 292.0805 540.8969 305.1941 540.8969C 322.2431 540.8969 335.5801 537.6319 345.1754 531.1023C 354.7392 524.5449 360.9116 515.5384 363.6629 503.9957L363.6629 503.9957L336.0283 499.2741C 334.1086 505.4236 330.4616 510.2909 325.1205 513.8765C 319.8112 517.4325 313.1589 519.2101 305.1626 519.2101C 293.0712 519.2101 283.4444 515.7133 276.3125 508.6885C 269.1797 501.6634 265.5967 491.2583 265.5967 477.4708C 265.5967 462.577 269.2111 451.4131 276.44 443.9803C 283.7007 436.5488 293.167 432.8175 304.9064 432.8175C 310.6956 432.8175 316.516 433.8666 322.3389 435.9356C 328.191 438.0055 333.1811 440.5419 337.371 443.514L337.371 443.514L337.371 459.3997z" stroke="none" fill="#172A4E" fill-rule="nonzero" />
	</g>
</g>
</svg>